<svg viewBox="0 0 20 20" xmlns="http://www.w3.org/2000/svg" xmlns:xlink="http://www.w3.org/1999/xlink" width="20.000000" height="20.000000" fill="none" customFrame="#000000">
	<rect id="phone" width="20.000000" height="20.000000" x="0.000000" y="0.000000" />
	<path id="矢量 72" d="M11.5267 13.8066C11.6408 13.859 11.7653 13.885 11.8908 13.8825C12.0164 13.88 12.1398 13.8492 12.2518 13.7924C12.3637 13.7355 12.4614 13.654 12.5375 13.5541L12.8333 13.1666C12.9886 12.9596 13.1899 12.7916 13.4213 12.6759C13.6527 12.5602 13.9079 12.5 14.1667 12.5L16.6667 12.5C16.9592 12.5 17.2466 12.577 17.5 12.7233C17.7534 12.8695 17.9638 13.0799 18.11 13.3333C18.2563 13.5867 18.3333 13.8741 18.3333 14.1666L18.3333 16.6666C18.3333 16.9592 18.2563 17.2466 18.11 17.5C17.9638 17.7533 17.7534 17.9637 17.5 18.11C17.2466 18.2563 16.9592 18.3333 16.6667 18.3333C14.0336 18.3333 11.4469 17.6402 9.16666 16.3237C6.88637 15.0071 4.9928 13.1136 3.67628 10.8333C2.35975 8.55301 1.66666 5.96634 1.66666 3.33329C1.66666 3.04073 1.74367 2.75332 1.88995 2.49996C2.03623 2.24659 2.24662 2.0362 2.49999 1.88992C2.75336 1.74364 3.04076 1.66663 3.33332 1.66663L5.83332 1.66663C6.12588 1.66663 6.41329 1.74364 6.66666 1.88992C6.92002 2.0362 7.13042 2.24659 7.2767 2.49996C7.42298 2.75332 7.49999 3.04073 7.49999 3.33329L7.49999 5.83329C7.49999 6.09203 7.43975 6.34722 7.32404 6.57865C7.20832 6.81007 7.04032 7.01138 6.83332 7.16663L6.44332 7.45913C6.34189 7.53658 6.2596 7.63629 6.20281 7.75057C6.14601 7.86485 6.11621 7.99065 6.11573 8.11827C6.11524 8.24589 6.14407 8.37191 6.19999 8.48663C6.76558 9.6354 7.51643 10.6832 8.42242 11.5881C9.32841 12.4929 10.3772 13.2425 11.5267 13.8066" fill-rule="nonzero" stroke="rgb(85,85,85)" stroke-linecap="round" stroke-linejoin="round" stroke-width="1.666667" />
</svg>
